PathFileType	4	(X/Y/Z)	C:\Users\Basilio\Documents\Thesis Gigler\squatting_fais\c3dfiles\019\SJ_pre4\markers_experimental.trc
DataRate	CameraRate	NumFrames	NumMarkers	Units	OrigDataRate	OrigDataStartFrame	OrigNumFrames
200.000000	200.000000	4	59	mm	200.000000	327	1308
Frame#	Time	LBHD			RBHD			C7			T10			CLAV			LSHO			LUUPA			LMUPA			LDUPA			LLEP			LMEP			LRAD			LUL			LRFIN			RSHO			RUPA1			RMUPA			RDUPA			RLEP			RMEP			RRAD			RUL			RUFIN			LASI			USACR			LSACR			RSACR			LTHI1			LTHI2			LTHI3			LTHI4			LLFC			LTIB1			LTIB2			LTIB3			LTIB4			LLMAL			LMMAL			LHEE			LMT1			LMT2			LMT5			RTHI			RTHI2			RTHI3			RTHI4			RLFC			RTIB1			RTIB2			RTIB3			RTIB4			RLMAL			RMMAL			RHEE			RMT1			RMT2			RMT5			FHD			RASI			
		X1	Y1	Z1	X2	Y2	Z2	X3	Y3	Z3	X4	Y4	Z4	X5	Y5	Z5	X6	Y6	Z6	X7	Y7	Z7	X8	Y8	Z8	X9	Y9	Z9	X10	Y10	Z10	X11	Y11	Z11	X12	Y12	Z12	X13	Y13	Z13	X14	Y14	Z14	X15	Y15	Z15	X16	Y16	Z16	X17	Y17	Z17	X18	Y18	Z18	X19	Y19	Z19	X20	Y20	Z20	X21	Y21	Z21	X22	Y22	Z22	X23	Y23	Z23	X24	Y24	Z24	X25	Y25	Z25	X26	Y26	Z26	X27	Y27	Z27	X28	Y28	Z28	X29	Y29	Z29	X30	Y30	Z30	X31	Y31	Z31	X32	Y32	Z32	X33	Y33	Z33	X34	Y34	Z34	X35	Y35	Z35	X36	Y36	Z36	X37	Y37	Z37	X38	Y38	Z38	X39	Y39	Z39	X40	Y40	Z40	X41	Y41	Z41	X42	Y42	Z42	X43	Y43	Z43	X44	Y44	Z44	X45	Y45	Z45	X46	Y46	Z46	X47	Y47	Z47	X48	Y48	Z48	X49	Y49	Z49	X50	Y50	Z50	X51	Y51	Z51	X52	Y52	Z52	X53	Y53	Z53	X54	Y54	Z54	X55	Y55	Z55	X56	Y56	Z56	X57	Y57	Z57	X58	Y58	Z58	X59	Y59	Z59	

328	1.635	-54.12623596191408	1038.96826171875	-1010.828796386719	-60.60170745849611	1038.000854492188	-871.3423461914065	-147.1478424072266	933.0714111328127	-938.6361083984377	-393.1560058593751	789.9214477539065	-940.5659790039065	-79.81311798095705	798.8538818359377	-935.3568115234377	-91.8217010498047	866.5193481445315	-1089.239624023438	-203.9978637695313	803.3612060546877	-1203.8701171875	-237.8657836914063	771.0471801757815	-1185.81396484375	-257.5915832519532	786.6455688476565	-1241.616821289063	-320.5685729980469	795.0476074218752	-1298.068969726563	-370.6643676757813	844.8474731445315	-1274.525024414063	-480.9835510253907	652.6251220703126	-1160.651489257813	-470.2541809082032	612.5703735351564	-1213.39013671875	-453.071258544922	628.4360961914064	-1119.819213867188	-90.82254028320314	869.119567871094	-795.1557617187502	-216.4466857910157	872.443298339844	-652.9430541992189	-228.272933959961	822.8460083007815	-645.2266235351564	-263.0456542968751	853.1475830078127	-604.3807373046876	-327.7935485839844	813.0047607421877	-565.4699096679689	-370.1851806640626	866.205505371094	-588.2855834960939	-479.8219604492189	677.7656860351564	-734.4696044921876	-460.1251831054689	633.9970703125001	-687.9782104492189	-451.8522949218751	640.2030029296876	-782.5718994140627	-436.684051513672	586.8920898437501	-1045.260986328125	-519.9306030273439	712.0075683593751	-944.458679199219	-548.2540893554689	692.8191528320314	-970.127868652344	-546.7151489257814	691.9436645507814	-914.8431396484377	-418.3845825195314	487.9524536132814	-1175.506469726563	-337.5848083496094	504.0326232910157	-1198.480224609375	-319.3023071289063	544.6688842773439	-1181.426879882813	-292.9787597656251	463.1515197753907	-1209.606567382813	-214.8436889648438	429.3951416015626	-1211.244262695313	-179.2971343994141	295.5727539062501	-1186.836059570313	-254.1980743408204	273.5008544921876	-1229.662475585938	-218.8585205078126	259.6308593750001	-1208.961669921875	-248.5982971191407	189.1336212158203	-1168.308715820313	-365.2027893066407	95.49062347412111	-1180.69384765625	-331.7777709960938	96.48136901855472	-1099.853393554688	-422.6285095214845	46.83832931518555	-1118.94384765625	-205.3228912353516	57.53852462768556	-1151.136596679688	-215.2564849853516	59.81533813476564	-1191.834838867188	-266.0867004394532	35.8299674987793	-1234.44091796875	-477.0140075683595	538.2971801757814	-725.8916625976564	-416.0094299316407	556.6297607421876	-718.4157104492189	-406.3367614746095	573.7933349609376	-745.1068115234376	-355.0683593750001	515.3825683593751	-682.0891113281251	-224.2460174560547	434.9410705566407	-660.8686523437501	-199.016586303711	266.2296447753907	-704.1486206054689	-289.5959777832032	211.2835083007813	-666.4280395507814	-249.8587646484376	193.384750366211	-691.4023437500001	-263.4955444335938	160.2181701660157	-735.2977905273439	-357.4735412597657	96.89543151855472	-704.9458618164064	-318.3276062011719	94.86011505126955	-776.8643798828127	-402.4713134765626	43.58471298217774	-770.2856445312502	-201.4763488769532	54.42684173583986	-712.9083862304689	-213.9172973632813	61.79748916625978	-669.3915405273439	-269.3474121093751	41.37711334228516	-633.4146728515626	77.00414276123048	1030.846435546875	-865.830261230469	nan	nan	nan	
329	1.64	-54.19385147094728	1036.874877929688	-1010.8330078125	-59.80306625366212	1035.572387695313	-871.4908447265627	-146.2646179199219	930.6387329101565	-938.709167480469	-392.9902648925782	787.9427490234377	-940.625427246094	-79.40815734863283	796.2054443359377	-935.7414550781252	-91.54114532470705	863.9248046875002	-1089.60107421875	-203.901840209961	801.3662109375002	-1204.03271484375	-237.7706604003907	768.9680175781252	-1186.099975585938	-257.5419311523438	784.6658325195315	-1241.948608398438	-320.6176147460938	793.387390136719	-1298.365112304688	-370.5201110839844	843.0650024414065	-1274.649291992188	-482.3115539550782	651.5205688476564	-1160.107055664063	-470.2750244140626	610.8004760742189	-1213.3056640625	-453.1379394531251	627.2746582031251	-1119.283081054688	-90.05345916748048	866.2788085937502	-795.4487915039065	-215.539779663086	871.500915527344	-653.2468261718751	-227.660629272461	820.1335449218752	-645.4093017578126	-263.9277343750001	846.7656250000002	-604.8626098632814	-327.0575561523438	810.6021728515627	-565.6404418945314	-369.5614929199219	863.9860839843752	-588.3115234375001	-479.8035583496095	676.0481567382814	-734.4566040039064	-460.3711853027345	632.3035888671876	-688.3898925781251	-451.7349853515626	638.3106079101564	-782.6552734375002	-438.1119689941407	585.3500366210939	-1046.968872070313	-519.8117065429689	710.1268310546876	-944.5491333007815	-548.6902465820314	691.1617431640626	-970.0986938476565	-546.5558471679689	689.9658813476564	-914.9720458984377	-418.3144531250001	486.7762145996095	-1175.58544921875	-337.6119384765626	503.2640075683595	-1198.525512695313	-319.4813232421876	543.9432983398439	-1181.460693359375	-292.8551025390626	462.6567993164064	-1209.703857421875	-214.4707336425782	429.0952148437501	-1211.392700195313	-179.0172271728516	295.4082946777344	-1187.046997070313	-254.0486602783204	273.3880920410157	-1229.814697265625	-218.6389465332032	259.4383239746094	-1209.056884765625	-248.5728302001954	188.9874572753907	-1168.402099609375	-365.2206420898438	95.49364471435548	-1180.717895507813	-331.7091064453126	96.50469970703128	-1099.845947265625	-415.3188781738282	43.21155548095704	-1115.722900390625	-206.6344604492188	57.96327209472658	-1151.879028320313	-215.2821350097657	59.76495742797853	-1191.861572265625	-266.1319274902344	35.81389617919923	-1234.4501953125	-477.2724914550782	537.0488281250001	-725.8662109375001	-416.331268310547	555.7145385742189	-718.4937133789064	-406.637176513672	572.7487182617189	-745.3329467773439	-355.0898437500001	514.5787353515626	-682.2144165039064	-224.0820312500001	434.7339477539064	-660.7091674804689	-198.9151916503907	266.1079101562501	-704.1175537109376	-289.5095825195313	211.2501068115235	-666.4137573242189	-249.8782653808594	193.4450836181641	-691.3506469726564	-263.4514770507813	160.2182159423828	-735.3192138671876	-357.4343566894532	96.87715911865237	-704.9386596679689	-318.2704772949219	94.85374450683595	-776.8438720703127	-402.4460754394532	43.59835052490235	-770.2847900390627	-201.4897155761719	54.41019439697267	-712.8435668945314	-213.9116821289063	61.78878784179689	-669.4796142578126	-269.4066772460938	41.40675354003907	-633.4697875976564	77.90941619873048	1027.841064453125	-865.9958496093752	nan	nan	nan	
330	1.645	-52.85924148559572	1034.200805664063	-1011.184997558594	-58.830867767334	1033.337158203125	-871.5681762695315	-146.608642578125	928.3604736328127	-939.2874145507815	-392.9742431640626	786.1309814453127	-940.6853027343752	-79.34189605712892	793.9289550781252	-936.1036376953127	-91.16117095947267	861.6541137695315	-1089.75439453125	-203.6330871582032	799.203796386719	-1204.536743164063	-237.7605895996094	766.9973144531251	-1186.290283203125	-257.6708679199219	782.754821777344	-1241.728271484375	-320.5433654785157	791.3748168945315	-1298.396118164063	-370.0017089843751	841.0694580078127	-1274.746459960938	-482.2602844238282	649.8958129882814	-1160.010009765625	-470.374969482422	609.3020629882814	-1213.06591796875	-452.9632263183595	625.7855834960939	-1119.156372070313	-89.97969818115236	864.2664184570315	-795.7390136718752	-214.6765441894532	869.3152465820315	-653.4102172851564	-227.0065612792969	817.781921386719	-645.5532836914064	-263.2340393066407	844.5040283203127	-604.9813232421876	-326.4610290527344	808.3461914062502	-565.8491210937501	-369.1292724609376	861.9959106445315	-588.5911865234376	-479.9395751953126	674.4909057617189	-734.4896240234376	-460.296356201172	630.4052124023439	-688.3751220703126	-452.0614624023439	637.1007690429689	-782.754577636719	-436.8887939453126	582.7776489257814	-1045.162353515625	-519.6561889648439	708.2047119140626	-944.6212158203127	-548.3090209960939	689.0874633789064	-970.224548339844	-546.7549438476564	688.2548217773439	-914.883972167969	-418.385955810547	485.7027587890626	-1175.61279296875	-337.7309875488282	502.5339355468751	-1198.598999023438	-319.7239685058594	543.2336425781251	-1181.482666015625	-292.6459045410157	462.0359191894532	-1209.7685546875	-214.2696380615235	428.9007873535157	-1211.221435546875	-178.8218078613282	294.8466796875001	-1187.846801757813	-254.0020446777344	273.2111816406251	-1229.8955078125	-218.4661254882813	259.2870178222657	-1209.239990234375	-248.3895416259766	188.8678894042969	-1168.517578125	-365.1570739746094	95.45458984375001	-1180.767211914063	-331.6401977539063	96.52133941650393	-1099.894775390625	-415.3240966796876	43.21124267578126	-1115.724487304688	-205.2804412841797	57.48402404785158	-1151.198364257813	-215.3280029296876	59.7200164794922	-1191.9072265625	-266.1251525878907	35.76589584350587	-1234.47705078125	-477.3309631347657	535.7824096679689	-726.0465698242189	-416.4683227539064	554.6182861328126	-718.8412475585939	-406.8694458007814	571.7351074218751	-745.5192260742189	-355.0278930664063	513.8222656250001	-682.2617187500001	-223.8083801269532	434.5416870117189	-660.5966186523439	-198.5880432128907	265.9906921386719	-704.0765991210939	-289.4140014648438	211.1400146484376	-666.4260864257814	-249.6433410644532	193.1952209472657	-691.4199218750001	-263.3681030273438	160.0887145996094	-735.3202514648439	-357.3873901367188	96.87638854980472	-704.9567260742189	-318.2078857421876	94.81139373779298	-776.8730468750002	-402.5147094726564	43.68101882934571	-770.2772216796877	-201.5028686523438	54.35657119750978	-712.8631591796876	-213.9077606201172	61.78135299682619	-669.4746093750001	-269.3107910156251	41.3512306213379	-633.4920654296876	78.73964691162111	1024.860961914063	-866.2517700195315	nan	nan	nan	
331	1.65	-51.54166793823244	1031.846923828125	-1011.205017089844	-58.0876808166504	1030.765258789063	-871.872741699219	-146.5017547607422	926.4431762695315	-939.524597167969	-392.7447509765626	784.1956787109377	-940.8079223632815	-78.83109283447267	791.4091796875002	-936.2526855468752	-90.94618988037111	859.3941040039065	-1090.0048828125	-203.2077789306641	797.099792480469	-1204.95703125	-237.6438751220704	764.9304199218751	-1186.553466796875	-257.5713806152344	780.8569335937502	-1241.842529296875	-320.5123291015626	789.7324218750002	-1298.695434570313	-370.1776428222657	839.5274658203127	-1275.002319335938	-482.5221252441407	648.5683593750001	-1159.929931640625	-470.5903320312501	607.8644409179689	-1213.021362304688	-453.1714172363282	624.2066650390626	-1118.93212890625	-89.59226226806642	862.091979980469	-795.9487304687502	-214.2511444091797	865.4295654296877	-653.3294067382814	-226.4438934326172	815.4421997070315	-645.7471923828126	-262.5277709960938	842.161071777344	-605.1844482421876	-325.8763732910157	806.0720825195315	-565.9814453125001	-368.3101501464844	859.8286132812502	-588.4319458007814	-479.933319091797	672.8442382812501	-734.4795532226564	-460.4116516113282	628.6543579101564	-688.5046997070314	-451.7943725585939	635.6008911132814	-782.7056274414065	-436.1932678222657	581.2827148437501	-1044.695922851563	-519.6576538085939	706.3735961914064	-944.6528320312502	-548.0076904296876	687.2335815429689	-970.2539672851565	-546.6441040039064	686.4257202148439	-914.8704833984377	-418.4241027832032	484.6402587890626	-1175.653930664063	-337.7735900878907	501.7373962402345	-1198.670166015625	-319.9434814453126	542.4525146484376	-1181.453247070313	-292.3351135253907	461.3435668945314	-1209.877197265625	-213.939926147461	428.6034240722657	-1211.435668945313	-178.7828674316407	294.5911865234376	-1188.015991210938	-253.7444763183594	273.0891113281251	-1230.105346679688	-218.3528137207032	259.1057739257813	-1209.35400390625	-248.2757568359376	188.7700805664063	-1168.586547851563	-365.0956726074219	95.45760345458986	-1180.735107421875	-331.6148376464844	96.50875091552737	-1099.893798828125	-415.3194885253907	43.23916244506837	-1115.700439453125	-205.1409606933594	57.52736282348634	-1151.069946289063	-215.3137512207032	59.71551513671876	-1191.923461914063	-266.1089477539063	35.73721313476563	-1234.50390625	-477.526580810547	534.6838378906251	-726.1046142578126	-416.5564880371095	553.5007934570314	-718.9323120117189	-407.0928649902345	570.5729370117189	-745.7633666992189	-354.9677429199219	512.8801879882814	-682.2709350585939	-223.6900177001954	434.3109130859376	-660.3689575195314	-198.4375000000001	265.8599243164063	-704.1027221679689	-289.3291931152344	211.0818786621094	-666.3894042968751	-249.5688781738282	193.2250213623047	-691.4140014648439	-263.3020324707032	160.026840209961	-735.2815551757814	-357.3917236328126	96.88147735595706	-704.9545288085939	-318.2784729003907	94.86574554443361	-776.9134521484377	-402.3457641601564	43.47693634033204	-770.3507080078127	-201.4518432617188	54.38560867309572	-712.8811645507814	-213.9194488525391	61.7952003479004	-669.4872436523439	-269.3227539062501	41.42076873779298	-633.4824218750001	79.55358886718751	1021.598022460938	-866.5784301757815	nan	nan	nan	
